<?xml version="1.0" encoding="utf-8"?>
<!-- Generator: Adobe Illustrator 23.0.4, SVG Export Plug-In . SVG Version: 6.00 Build 0)  -->
<svg version="1.1" id="Layer_1" xmlns="http://www.w3.org/2000/svg" xmlns:xlink="http://www.w3.org/1999/xlink" x="0px" y="0px"
	 viewBox="0 0 240 240" style="enable-background:new 0 0 240 240;" xml:space="preserve">
<style type="text/css">
	.st0{fill:none;stroke:#005EB8;stroke-width:4;stroke-linecap:round;stroke-miterlimit:10;}
</style>
<g>
	<title>I-Identity-140x175</title>
	<path class="st0" d="M57.3,61.8C72,45,92.7,34.6,115,33.1c35.3-2.2,58.3,19.3,62.1,23"/>
	<path class="st0" d="M51.7,96.1c3.8-6.3,25.8-41.7,63.1-44.9c38.6-3.3,63.8,30.3,67.9,35.9"/>
	<path class="st0" d="M53.1,119.9c5-3.8,9.6-8.1,13.7-12.9c7.1-8.3,7.9-12.9,12.6-18.9c10.5-13.6,26.6-17.7,29-18.3
		c22.4-5.4,40.4,6.7,41.8,7.7c13.6,9.6,22,24.9,22.6,41.6c0.3,15.4-7.9,21.6-4.7,35.8c2.1,8.1,6.6,15.3,12.9,20.8"/>
	<path class="st0" d="M52.6,145.5c9.4-6.6,17.6-14.7,24.3-24.1c8.9-12.5,9.7-20.1,19.7-27.3c6.9-5.1,15.2-7.8,23.8-7.6
		c11.8,0.7,22.6,6.8,29.2,16.6c13.3,20.9-7.8,43.4,5.2,68.3c3.8,7,9.4,12.9,16.1,17.2"/>
	<path class="st0" d="M50.7,169.9C74,154.8,87.2,139.2,95,127.5c6.3-9.4,11.7-20.2,22.1-21.6c8.2-0.9,16.2,3.2,20.2,10.4
		c2.8,5.7,1.7,13.1-4.7,24.9C119.3,166,95.8,186,75.8,199.7"/>
	<path class="st0" d="M57.5,188.8c15.5-10.3,29.6-22.5,42.1-36.4c7.6-8.5,14.6-17.6,20.8-27.2"/>
	<path class="st0" d="M182.7,99.4c8,18.3,8.8,38.8,2.5,57.7"/>
	<path class="st0" d="M134.8,164.2c-2.6,6.2-3.1,13.1-1.4,19.7c2.4,8.1,7.9,14.9,15.3,18.9"/>
	<path class="st0" d="M93,205.5c2.9-2.9,6.1-5.5,9.6-7.7c5.2-3.2,8.6-5.4,12.3-4.9c5.7,0.8,10.4,7.9,12.3,17.2"/>
</g>
</svg>
