<?xml version="1.0" encoding="utf-8"?>
<!-- Generator: Adobe Illustrator 23.0.1, SVG Export Plug-In . SVG Version: 6.00 Build 0)  -->
<svg version="1.1" xmlns="http://www.w3.org/2000/svg" xmlns:xlink="http://www.w3.org/1999/xlink" x="0px" y="0px"
	 viewBox="0 0 240 240" style="enable-background:new 0 0 240 240;" xml:space="preserve">
<style type="text/css">
	.st0{fill:none;stroke:#005EB8;stroke-width:4;stroke-linecap:round;stroke-linejoin:round;stroke-miterlimit:10;}
	.st1{fill:none;stroke:#005EB8;stroke-width:4;stroke-miterlimit:10;}
	.st2{display:none;}
	.st3{display:inline;}
	.st4{fill:#005EB8;}
	.st5{display:inline;fill:#005EB8;}
	.st6{fill:none;stroke:#005EB8;stroke-width:4;stroke-linecap:round;stroke-linejoin:round;}
	.st7{fill:none;stroke:#005EB8;stroke-width:3.2242;stroke-linecap:round;stroke-linejoin:round;stroke-miterlimit:10;}
	.st8{fill:#005EB8;}
	.st9{fill:none;stroke:#005EB8;stroke-width:3;stroke-linecap:round;stroke-linejoin:round;stroke-miterlimit:10;}
	.st10{fill:none;stroke:#005EB8;stroke-width:4;stroke-linecap:round;stroke-linejoin:round;stroke-miterlimit:10;}
</style>
<g id="Layer_1">
	<g>
		<path class="st0" d="M58.56,54h132c13.25,0,24,10.75,24,24v84c0,13.25-10.75,24-24,24h-132c-13.25,0-24-10.75-24-24V78
			C34.56,64.74,45.31,54,58.56,54z"/>
		<path class="st0" d="M214.56,165.86H160.5c-3.32,0-6.62-0.93-9.31-2.87c-7.24-5.2-3.58-12.45-2.2-14.67
			c0.34-0.55,0.67-1.1,0.94-1.68c2.93-6.26,4.63-13.68,4.63-21.63c0-22.37-13.43-40.5-30-40.5s-30,18.13-30,40.5
			c0,7.95,1.7,15.37,4.63,21.63c0.27,0.58,0.6,1.14,0.94,1.68c1.38,2.22,5.04,9.47-2.2,14.67c-2.7,1.94-5.99,2.87-9.31,2.87H34.56"
			/>
		<line class="st0" x1="214.56" y1="142.33" x2="151.68" y2="142.33"/>
		<line class="st0" x1="97.45" y1="142.33" x2="34.56" y2="142.33"/>
		<line class="st0" x1="214.56" y1="100.33" x2="149.9" y2="100.33"/>
		<line class="st0" x1="99.13" y1="100.33" x2="34.56" y2="100.33"/>
		<line class="st0" x1="212.94" y1="72.32" x2="36.74" y2="71.01"/>
		<line class="st0" x1="84.01" y1="184.45" x2="84.01" y2="168.57"/>
		<line class="st0" x1="169.18" y1="184.45" x2="169.18" y2="166.03"/>
		<line class="st0" x1="169.18" y1="100.33" x2="182.23" y2="54"/>
		<line class="st0" x1="80.62" y1="100.33" x2="67.56" y2="54"/>
	</g>
</g>
<g id="Layer_2">
</g>
</svg>
